<svg xmlns="http://www.w3.org/2000/svg" width="261" height="33" fill="none" viewBox="0 0 261 33"><path fill="#F2F4F7" d="M255.91 27.396C255.182 27.396 254.507 27.2139 253.886 26.8497C253.264 26.4854 252.761 25.9926 252.375 25.3713C252.011 24.75 251.829 24.0643 251.829 23.3144V15.344H249.868V10.8446H252.118L254.046 6.50586H257.035V10.8446H260.024V14.0585L258.867 15.344H257.035V21.7075C257.035 21.9646 257.099 22.1574 257.228 22.286C257.356 22.4145 257.539 22.4788 257.774 22.4788H260.249V27.396H255.91Z"/><path fill="#F2F4F7" d="M236.513 27.3972V22.8977H242.619C242.855 22.8977 243.026 22.8442 243.133 22.737C243.262 22.6085 243.326 22.4478 243.326 22.255V22.0621C243.326 21.8693 243.262 21.7193 243.133 21.6122C243.026 21.5051 242.833 21.4086 242.555 21.3229L239.694 20.4552C238.987 20.2195 238.398 19.9517 237.927 19.6517C237.477 19.3303 237.123 18.934 236.866 18.4626C236.631 17.9698 236.513 17.3913 236.513 16.7271V14.9273C236.513 14.1774 236.695 13.4918 237.059 12.8704C237.445 12.2491 237.948 11.7563 238.57 11.3921C239.191 11.0278 239.866 10.8457 240.594 10.8457H248.083V14.0596L246.926 15.3451H242.523C242.287 15.3451 242.105 15.3987 241.976 15.5058C241.869 15.5915 241.816 15.7308 241.816 15.9236V16.0843C241.816 16.2557 241.88 16.4057 242.008 16.5343C242.137 16.6628 242.33 16.7592 242.587 16.8235L245.479 17.7234C246.186 17.9377 246.765 18.2055 247.215 18.5269C247.686 18.8268 248.04 19.2125 248.275 19.6839C248.511 20.1552 248.629 20.723 248.629 21.3872V23.3155C248.629 24.0654 248.447 24.7511 248.083 25.3724C247.718 25.9938 247.226 26.4866 246.604 26.8508C245.983 27.215 245.297 27.3972 244.547 27.3972H236.513Z"/><path fill="#F2F4F7" d="M225.032 27.3938C224.282 27.3938 223.597 27.2117 222.975 26.8475C222.354 26.4832 221.861 25.9904 221.497 25.3691C221.133 24.7477 220.951 24.0621 220.951 23.3122V14.6026C220.951 13.8527 221.133 13.1671 221.497 12.5457C221.861 11.9244 222.354 11.4316 222.975 11.0674C223.597 10.7031 224.282 10.521 225.032 10.521H230.11C230.839 10.521 231.514 10.7031 232.135 11.0674C232.756 11.4316 233.249 11.9244 233.613 12.5457C233.999 13.1671 234.192 13.8527 234.192 14.6026V20.9661H226.157V22.3481C226.157 22.6052 226.221 22.798 226.35 22.9266C226.479 23.0551 226.661 23.1194 226.896 23.1194H233.421V27.3938H225.032ZM226.029 17.4951H229.082V15.5025C229.082 15.2454 229.018 15.0633 228.889 14.9561C228.782 14.8276 228.6 14.7633 228.343 14.7633H226.8C226.543 14.7633 226.35 14.8276 226.221 14.9561C226.093 15.0633 226.029 15.2454 226.029 15.5025V17.4951Z"/><path fill="#F2F4F7" d="M210.287 8.82039C210.287 8.07049 210.469 7.38486 210.833 6.76351C211.197 6.14216 211.69 5.64937 212.311 5.28513C212.933 4.92089 213.618 4.73877 214.368 4.73877H220.314V9.2382H216.232C215.997 9.2382 215.814 9.30247 215.686 9.43103C215.557 9.53816 215.493 9.72027 215.493 9.97738V12.4521H219.028V15.6017L218.418 16.9515H215.493V27.3966H210.287V8.82039Z"/><path fill="#F2F4F7" d="M198.292 27.3938V10.8424H201.571L202.31 12.61H202.471C202.728 12.0744 203.135 11.5923 203.692 11.1638C204.249 10.7353 204.892 10.521 205.62 10.521H208.191V15.7596H204.399C204.185 15.7596 204.013 15.8025 203.885 15.8882C203.756 15.9524 203.66 16.0489 203.595 16.1774C203.531 16.306 203.499 16.4774 203.499 16.6916V27.3938H198.292Z"/><path fill="#F2F4F7" d="M186.426 27.3938C185.676 27.3938 184.99 27.2117 184.369 26.8475C183.748 26.4832 183.255 25.9904 182.891 25.3691C182.526 24.7477 182.344 24.0621 182.344 23.3122V14.6026C182.344 13.8527 182.526 13.1671 182.891 12.5457C183.255 11.9244 183.748 11.4316 184.369 11.0674C184.99 10.7031 185.676 10.521 186.426 10.521H191.504C192.232 10.521 192.907 10.7031 193.529 11.0674C194.15 11.4316 194.643 11.9244 195.007 12.5457C195.393 13.1671 195.585 13.8527 195.585 14.6026V20.9661H187.551V22.3481C187.551 22.6052 187.615 22.798 187.744 22.9266C187.872 23.0551 188.054 23.1194 188.29 23.1194H194.814V27.3938H186.426ZM187.422 17.4951H190.475V15.5025C190.475 15.2454 190.411 15.0633 190.283 14.9561C190.175 14.8276 189.993 14.7633 189.736 14.7633H188.193C187.936 14.7633 187.744 14.8276 187.615 14.9561C187.486 15.0633 187.422 15.2454 187.422 15.5025V17.4951Z"/><path fill="#F2F4F7" d="M166.379 27.4004V5.06396H171.585V12.5523H171.746C171.982 12.0381 172.367 11.5774 172.903 11.1703C173.46 10.7418 174.103 10.5276 174.831 10.5276H175.796C176.545 10.5276 177.22 10.699 177.82 11.0418C178.42 11.3846 178.892 11.8667 179.234 12.488C179.599 13.0879 179.781 13.7521 179.781 14.4806V23.3188C179.781 24.0687 179.588 24.7543 179.202 25.3757C178.838 25.997 178.345 26.4898 177.724 26.854C177.103 27.2183 176.428 27.4004 175.699 27.4004H166.379ZM173.932 22.5796C174.189 22.5796 174.371 22.5153 174.478 22.3867C174.606 22.2582 174.671 22.0761 174.671 21.8404V16.0876C174.671 15.8304 174.606 15.6483 174.478 15.5412C174.371 15.4126 174.189 15.3484 173.932 15.3484H172.71C172.41 15.3484 172.175 15.3912 172.003 15.4769C171.832 15.5626 171.693 15.7019 171.585 15.8947C171.5 16.0661 171.457 16.2911 171.457 16.5696V22.5796H173.932Z"/><path fill="#F2F4F7" d="M154.164 27.7152C153.414 27.7152 152.728 27.5331 152.107 27.1689C151.485 26.8046 150.993 26.3118 150.628 25.6905C150.264 25.0691 150.082 24.3835 150.082 23.6336V14.6026C150.082 13.8527 150.264 13.1671 150.628 12.5457C150.993 11.9244 151.485 11.4316 152.107 11.0674C152.728 10.7031 153.414 10.521 154.164 10.521H159.402C160.131 10.521 160.806 10.7031 161.427 11.0674C162.048 11.4316 162.541 11.9244 162.905 12.5457C163.291 13.1671 163.484 13.8527 163.484 14.6026V23.6336C163.484 24.3835 163.291 25.0691 162.905 25.6905C162.541 26.3118 162.048 26.8046 161.427 27.1689C160.806 27.5331 160.131 27.7152 159.402 27.7152H154.164ZM157.635 22.8944C157.892 22.8944 158.074 22.8301 158.181 22.7016C158.31 22.573 158.374 22.3909 158.374 22.1552V16.081C158.374 15.8239 158.31 15.6418 158.181 15.5346C158.074 15.4061 157.892 15.3418 157.635 15.3418H155.931C155.674 15.3418 155.481 15.4061 155.353 15.5346C155.224 15.6418 155.16 15.8239 155.16 16.081V22.1552C155.16 22.3909 155.224 22.573 155.353 22.7016C155.481 22.8301 155.674 22.8944 155.931 22.8944H157.635Z"/><path fill="#F2F4F7" d="M143.801 27.396C143.073 27.396 142.398 27.2139 141.777 26.8497C141.155 26.4854 140.652 25.9926 140.266 25.3713C139.902 24.75 139.72 24.0643 139.72 23.3144V15.344H137.759V10.8446H140.009L141.937 6.50586H144.926V10.8446H147.915V14.0585L146.758 15.344H144.926V21.7075C144.926 21.9646 144.99 22.1574 145.119 22.286C145.248 22.4145 145.43 22.4788 145.665 22.4788H148.14V27.396H143.801Z"/><path fill="#F2F4F7" d="M123.131 27.4004V5.06396H128.338V16.7303H129.559L131.745 10.8489H136.469V13.2593L133.962 18.9479L136.694 24.99V27.4004H131.809L129.559 21.4547H128.338V27.4004H123.131Z"/><path fill="#F2F4F7" d="M113.394 27.3972C112.644 27.3972 111.959 27.215 111.337 26.8508C110.716 26.4866 110.223 25.9938 109.859 25.3724C109.495 24.7511 109.312 24.0654 109.312 23.3155V14.9273C109.312 14.1774 109.495 13.4918 109.859 12.8704C110.223 12.2491 110.716 11.7563 111.337 11.3921C111.959 11.0278 112.644 10.8457 113.394 10.8457H120.561V14.6059L119.5 15.7629H115.258C115.022 15.7629 114.84 15.8272 114.712 15.9558C114.583 16.0843 114.519 16.2772 114.519 16.5343V21.7086C114.519 21.9657 114.583 22.1585 114.712 22.2871C114.84 22.4157 115.022 22.4799 115.258 22.4799H120.561V27.3972H113.394Z"/><path fill="#F2F4F7" d="M97.4374 27.7185C96.6874 27.7185 96.0125 27.5471 95.4126 27.2043C94.8127 26.8615 94.3306 26.3901 93.9664 25.7902C93.6236 25.1689 93.4521 24.494 93.4521 23.7655V21.2265C93.4521 20.498 93.6236 19.8338 93.9664 19.2339C94.3306 18.6126 94.8127 18.1305 95.4126 17.7877C96.0125 17.4449 96.6874 17.2735 97.4374 17.2735H101.39V15.8272C101.39 15.5701 101.326 15.388 101.198 15.2809C101.09 15.1523 100.908 15.088 100.651 15.088H94.8984V10.8457H102.612C103.362 10.8457 104.037 11.0171 104.636 11.3599C105.236 11.7027 105.708 12.1848 106.051 12.8062C106.415 13.4061 106.597 14.0703 106.597 14.7988V27.3972H103.319L102.58 25.6295H102.419C102.162 26.1652 101.744 26.6473 101.165 27.0758C100.608 27.5043 99.9656 27.7185 99.2371 27.7185H97.4374ZM100.266 23.5405C100.523 23.5405 100.737 23.4977 100.908 23.412C101.101 23.3048 101.24 23.1656 101.326 22.9942C101.433 22.8013 101.487 22.5763 101.487 22.3192V20.7444H99.205C98.9479 20.7444 98.755 20.8087 98.6265 20.9373C98.4979 21.0658 98.4337 21.2587 98.4337 21.5158V22.8013C98.4337 23.037 98.4979 23.2191 98.6265 23.3477C98.755 23.4762 98.9479 23.5405 99.205 23.5405H100.266Z"/><path fill="#F2F4F7" d="M77.1245 27.3917V4.89453H82.4917V13.572H85.3199V4.89453H90.6871V27.3917H85.3199V18.5535H82.4917V27.3917H77.1245Z"/><path fill="#C2C2FF" d="M35.1157 20.5716V12.2056H42.6452V13.7593L41.8086 14.5959H37.7451V15.6715H41.211V18.0618H37.7451V20.5716H35.1157Z"/><path fill="#C2C2FF" d="M25.1968 20.5716V12.2056H27.8261V15.1934H31.4116V12.2056H34.0409V20.5716H31.4116V17.5837H27.8261V20.5716H25.1968Z"/><rect width="2.29" height="2.29" x="34.598" y="30.041" fill="#5A5AB5"/><rect width="2.29" height="2.29" x="36.886" y="30.041" fill="#5A5AB5"/><rect width="2.29" height="2.29" x="36.886" y="27.753" fill="#A0A0FF"/><rect width="2.29" height="2.29" x="39.178" y="25.465" fill="#5A5AB5"/><rect width="2.29" height="2.29" x="39.178" y="23.176" fill="#5A5AB5"/><rect width="2.29" height="2.29" fill="#5A5AB5" transform="matrix(1 0 0 -1 34.5977 2.57812)"/><rect width="2.29" height="2.29" fill="#5A5AB5" transform="matrix(1 0 0 -1 36.8862 2.57812)"/><rect width="2.29" height="2.29" fill="#A0A0FF" transform="matrix(1 0 0 -1 36.8862 4.8667)"/><rect width="2.29" height="2.29" fill="#5A5AB5" transform="matrix(1 0 0 -1 39.1782 7.15527)"/><rect width="2.29" height="2.29" fill="#5A5AB5" transform="matrix(-1 0 0 1 32.3057 30.0415)"/><rect width="2.29" height="2.29" fill="#5A5AB5" transform="matrix(-1 0 0 1 30.0171 30.0415)"/><rect width="2.29" height="2.29" fill="#A0A0FF" transform="matrix(-1 0 0 1 30.0171 27.7534)"/><rect width="2.29" height="2.29" fill="#5A5AB5" transform="matrix(-1 0 0 1 27.7251 25.4648)"/><rect width="2.29" height="2.29" fill="#5A5AB5" transform="matrix(-1 0 0 1 27.7251 23.1763)"/><rect width="2.29" height="2.29" x="32.306" y="2.578" fill="#5A5AB5" transform="rotate(180 32.3057 2.57812)"/><rect width="2.29" height="2.29" x="30.017" y="2.578" fill="#5A5AB5" transform="rotate(180 30.0171 2.57812)"/><rect width="2.29" height="2.29" x="30.017" y="4.867" fill="#A0A0FF" transform="rotate(180 30.0171 4.8667)"/><rect width="2.29" height="2.29" x="27.725" y="7.155" fill="#5A5AB5" transform="rotate(180 27.7251 7.15527)"/><rect width="2.29" height="2.29" x="39.166" y=".28" fill="#A0A0FF"/><rect width="2.29" height="2.29" x="41.455" y="2.568" fill="#5A5AB5"/><rect width="2.29" height="2.29" x="43.747" y="2.568" fill="#A0A0FF"/><rect width="2.29" height="2.29" x="46.035" y="4.857" fill="#A0A0FF"/><rect width="2.29" height="2.29" x="48.327" y="7.145" fill="#5A5AB5"/><rect width="2.29" height="2.29" x="48.327" y="9.44" fill="#A0A0FF"/><rect width="2.29" height="2.29" x="50.616" y="11.729" fill="#A0A0FF"/><rect width="2.29" height="2.29" x="50.616" y="14.018" fill="#5A5AB5"/><rect width="2.29" height="2.29" fill="#A0A0FF" transform="matrix(1 0 0 -1 39.1665 32.3433)"/><rect width="2.29" height="2.29" fill="#5A5AB5" transform="matrix(1 0 0 -1 41.4551 30.0547)"/><rect width="2.29" height="2.29" fill="#A0A0FF" transform="matrix(1 0 0 -1 43.7471 30.0547)"/><rect width="2.29" height="2.29" fill="#A0A0FF" transform="matrix(1 0 0 -1 46.0352 27.7661)"/><rect width="2.29" height="2.29" fill="#5A5AB5" transform="matrix(1 0 0 -1 48.3271 25.478)"/><rect width="2.29" height="2.29" fill="#A0A0FF" transform="matrix(1 0 0 -1 48.3271 23.1826)"/><rect width="2.29" height="2.29" fill="#A0A0FF" transform="matrix(1 0 0 -1 50.6157 20.894)"/><rect width="2.29" height="2.29" fill="#5A5AB5" transform="matrix(1 0 0 -1 50.6157 18.6055)"/><rect width="2.29" height="2.29" fill="#A0A0FF" transform="matrix(-1 0 0 1 27.73 0.279785)"/><rect width="2.29" height="2.29" fill="#5A5AB5" transform="matrix(-1 0 0 1 25.4414 2.56836)"/><rect width="2.29" height="2.29" fill="#A0A0FF" transform="matrix(-1 0 0 1 23.1494 2.56836)"/><rect width="2.29" height="2.29" fill="#A0A0FF" transform="matrix(-1 0 0 1 20.8613 4.85693)"/><rect width="2.29" height="2.29" fill="#5A5AB5" transform="matrix(-1 0 0 1 18.5693 7.14502)"/><rect width="2.29" height="2.29" fill="#A0A0FF" transform="matrix(-1 0 0 1 18.5693 9.44043)"/><rect width="2.29" height="2.29" fill="#A0A0FF" transform="matrix(-1 0 0 1 16.2808 11.729)"/><rect width="2.29" height="2.29" fill="#5A5AB5" transform="matrix(-1 0 0 1 16.2808 14.0176)"/><rect width="2.29" height="2.29" x="27.73" y="32.343" fill="#A0A0FF" transform="rotate(180 27.73 32.3433)"/><rect width="2.29" height="2.29" x="25.441" y="30.055" fill="#5A5AB5" transform="rotate(180 25.4414 30.0547)"/><rect width="2.29" height="2.29" x="23.149" y="30.055" fill="#A0A0FF" transform="rotate(180 23.1494 30.0547)"/><rect width="2.29" height="2.29" x="20.861" y="27.766" fill="#A0A0FF" transform="rotate(180 20.8613 27.7661)"/><rect width="2.29" height="2.29" x="18.569" y="25.478" fill="#5A5AB5" transform="rotate(180 18.5693 25.478)"/><rect width="2.29" height="2.29" x="18.569" y="23.183" fill="#A0A0FF" transform="rotate(180 18.5693 23.1826)"/><rect width="2.29" height="2.29" x="16.281" y="20.894" fill="#A0A0FF" transform="rotate(180 16.2808 20.894)"/><rect width="2.29" height="2.29" x="16.281" y="18.605" fill="#5A5AB5" transform="rotate(180 16.2808 18.6055)"/><rect width="2.29" height="2.29" x="43.754" y=".282" fill="#5A5AB5"/><rect width="2.29" height="2.29" x="46.046" y="2.571" fill="#5A5AB5"/><rect width="2.29" height="2.29" x="46.046" y=".282" fill="#A0A0FF"/><rect width="2.29" height="2.29" x="48.334" y="2.571" fill="#A0A0FF"/><rect width="2.29" height="2.29" x="50.627" y="4.859" fill="#A0A0FF"/><rect width="2.29" height="2.29" x="50.627" y="2.571" fill="#5A5AB5"/><rect width="2.29" height="2.29" x="52.915" y="4.859" fill="#5A5AB5"/><rect width="2.29" height="2.29" x="55.204" y="7.147" fill="#5A5AB5"/><rect width="2.29" height="2.29" x="57.492" y="9.443" fill="#A0A0FF"/><rect width="2.29" height="2.29" x="57.492" y="11.731" fill="#5A5AB5"/><rect width="2.29" height="2.29" x="41.466" y=".282" fill="#5A5AB5"/><rect width="2.29" height="2.29" fill="#5A5AB5" transform="matrix(1 0 0 -1 43.7544 32.3457)"/><rect width="2.29" height="2.29" fill="#5A5AB5" transform="matrix(1 0 0 -1 41.4658 32.3457)"/><rect width="2.29" height="2.29" fill="#5A5AB5" transform="matrix(1 0 0 -1 46.0464 30.0571)"/><rect width="2.29" height="2.29" fill="#A0A0FF" transform="matrix(1 0 0 -1 46.0464 32.3457)"/><rect width="2.29" height="2.29" fill="#A0A0FF" transform="matrix(1 0 0 -1 48.3345 30.0571)"/><rect width="2.29" height="2.29" fill="#A0A0FF" transform="matrix(1 0 0 -1 50.6265 27.7686)"/><rect width="2.29" height="2.29" fill="#5A5AB5" transform="matrix(1 0 0 -1 50.6265 30.0571)"/><rect width="2.29" height="2.29" fill="#5A5AB5" transform="matrix(1 0 0 -1 52.915 27.7686)"/><rect width="2.29" height="2.29" fill="#5A5AB5" transform="matrix(1 0 0 -1 55.2036 25.4805)"/><rect width="2.29" height="2.29" fill="#A0A0FF" transform="matrix(1 0 0 -1 57.4922 23.1851)"/><rect width="2.29" height="2.29" fill="#5A5AB5" transform="matrix(1 0 0 -1 57.4922 20.8965)"/><rect width="2.29" height="2.29" fill="#5A5AB5" transform="matrix(1 0 0 -1 57.4922 19.7524)"/><rect width="2.29" height="2.29" fill="#5A5AB5" transform="matrix(-1 0 0 1 23.1479 0.282227)"/><rect width="2.29" height="2.29" fill="#5A5AB5" transform="matrix(-1 0 0 1 20.856 2.5708)"/><rect width="2.29" height="2.29" fill="#A0A0FF" transform="matrix(-1 0 0 1 20.856 0.282227)"/><rect width="2.29" height="2.29" fill="#A0A0FF" transform="matrix(-1 0 0 1 18.5679 2.5708)"/><rect width="2.29" height="2.29" fill="#A0A0FF" transform="matrix(-1 0 0 1 16.2759 4.85938)"/><rect width="2.29" height="2.29" fill="#5A5AB5" transform="matrix(-1 0 0 1 16.2759 2.5708)"/><rect width="2.29" height="2.29" fill="#5A5AB5" transform="matrix(-1 0 0 1 13.9873 4.85938)"/><rect width="2.29" height="2.29" fill="#5A5AB5" transform="matrix(-1 0 0 1 11.6987 7.14746)"/><rect width="2.29" height="2.29" fill="#A0A0FF" transform="matrix(-1 0 0 1 9.41016 9.44287)"/><rect width="2.29" height="2.29" fill="#5A5AB5" transform="matrix(-1 0 0 1 9.41016 11.7314)"/><rect width="2.29" height="2.29" fill="#5A5AB5" transform="matrix(-1 0 0 1 9.41016 14.02)"/><rect width="2.29" height="2.29" fill="#5A5AB5" transform="matrix(-1 0 0 1 25.4365 0.282227)"/><rect width="2.29" height="2.29" x="23.148" y="32.346" fill="#5A5AB5" transform="rotate(180 23.1479 32.3457)"/><rect width="2.29" height="2.29" x="25.436" y="32.346" fill="#5A5AB5" transform="rotate(180 25.4365 32.3457)"/><rect width="2.29" height="2.29" x="20.856" y="30.057" fill="#5A5AB5" transform="rotate(180 20.856 30.0571)"/><rect width="2.29" height="2.29" x="20.856" y="32.346" fill="#A0A0FF" transform="rotate(180 20.856 32.3457)"/><rect width="2.29" height="2.29" x="18.568" y="30.057" fill="#A0A0FF" transform="rotate(180 18.5679 30.0571)"/><rect width="2.29" height="2.29" x="16.276" y="27.769" fill="#A0A0FF" transform="rotate(180 16.2759 27.7686)"/><rect width="2.29" height="2.29" x="16.276" y="30.057" fill="#5A5AB5" transform="rotate(180 16.2759 30.0571)"/><rect width="2.29" height="2.29" x="13.987" y="27.769" fill="#5A5AB5" transform="rotate(180 13.9873 27.7686)"/><rect width="2.29" height="2.29" x="11.699" y="25.48" fill="#5A5AB5" transform="rotate(180 11.6987 25.4805)"/><rect width="2.29" height="2.29" x="9.41" y="23.185" fill="#A0A0FF" transform="rotate(180 9.41016 23.1851)"/><rect width="2.29" height="2.29" x="9.41" y="20.896" fill="#5A5AB5" transform="rotate(180 9.41016 20.8965)"/><rect width="2.29" height="2.29" x="9.41" y="18.608" fill="#5A5AB5" transform="rotate(180 9.41016 18.6079)"/><rect width="2.29" height="2.29" x="52.917" y="2.59" fill="#A0A0FF"/><rect width="2.29" height="2.29" x="55.206" y="2.59" fill="#5A5AB5"/><rect width="2.29" height="2.29" x="55.206" y="4.878" fill="#A0A0FF"/><rect width="2.29" height="2.29" x="57.498" y="4.878" fill="#5A5AB5"/><rect width="2.29" height="2.29" x="59.786" y="4.878" fill="#A0A0FF"/><rect width="2.29" height="2.29" x="59.786" y="7.167" fill="#5A5AB5"/><rect width="2.29" height="2.29" x="62.078" y="7.167" fill="#A0A0FF"/><rect width="2.29" height="2.29" x="62.078" y="9.455" fill="#A0A0FF"/><rect width="2.29" height="2.29" x="64.367" y="11.751" fill="#A0A0FF"/><rect width="2.29" height="2.29" x="64.367" y="14.039" fill="#A0A0FF"/><rect width="2.29" height="2.29" fill="#A0A0FF" transform="matrix(1 0 0 -1 52.9175 30.0581)"/><rect width="2.29" height="2.29" fill="#5A5AB5" transform="matrix(1 0 0 -1 55.2061 30.0581)"/><rect width="2.29" height="2.29" fill="#A0A0FF" transform="matrix(1 0 0 -1 55.2061 27.7695)"/><rect width="2.29" height="2.29" fill="#5A5AB5" transform="matrix(1 0 0 -1 57.498 27.7695)"/><rect width="2.29" height="2.29" fill="#A0A0FF" transform="matrix(1 0 0 -1 59.7861 27.7695)"/><rect width="2.29" height="2.29" fill="#5A5AB5" transform="matrix(1 0 0 -1 59.7861 25.481)"/><rect width="2.29" height="2.29" fill="#A0A0FF" transform="matrix(1 0 0 -1 62.0781 25.481)"/><rect width="2.29" height="2.29" fill="#A0A0FF" transform="matrix(1 0 0 -1 62.0781 23.1929)"/><rect width="2.29" height="2.29" fill="#A0A0FF" transform="matrix(1 0 0 -1 64.3667 20.8975)"/><rect width="2.29" height="2.29" fill="#A0A0FF" transform="matrix(1 0 0 -1 64.3667 18.6089)"/><rect width="2.29" height="2.29" fill="#A0A0FF" transform="matrix(-1 0 0 1 13.9849 2.58984)"/><rect width="2.29" height="2.29" fill="#5A5AB5" transform="matrix(-1 0 0 1 11.6963 2.58984)"/><rect width="2.29" height="2.29" fill="#A0A0FF" transform="matrix(-1 0 0 1 11.6963 4.87842)"/><rect width="2.29" height="2.29" fill="#5A5AB5" transform="matrix(-1 0 0 1 9.4043 4.87842)"/><rect width="2.29" height="2.29" fill="#A0A0FF" transform="matrix(-1 0 0 1 7.11621 4.87842)"/><rect width="2.29" height="2.29" fill="#5A5AB5" transform="matrix(-1 0 0 1 7.11621 7.16699)"/><rect width="2.29" height="2.29" fill="#A0A0FF" transform="matrix(-1 0 0 1 4.82422 7.16699)"/><rect width="2.29" height="2.29" fill="#A0A0FF" transform="matrix(-1 0 0 1 4.82422 9.45508)"/><rect width="2.29" height="2.29" fill="#A0A0FF" transform="matrix(-1 0 0 1 2.53564 11.7505)"/><rect width="2.29" height="2.29" fill="#A0A0FF" transform="matrix(-1 0 0 1 2.53564 14.0391)"/><rect width="2.29" height="2.29" x="13.985" y="30.058" fill="#A0A0FF" transform="rotate(180 13.9849 30.0581)"/><rect width="2.29" height="2.29" x="11.696" y="30.058" fill="#5A5AB5" transform="rotate(180 11.6963 30.0581)"/><rect width="2.29" height="2.29" x="11.696" y="27.77" fill="#A0A0FF" transform="rotate(180 11.6963 27.7695)"/><rect width="2.29" height="2.29" x="9.404" y="27.77" fill="#5A5AB5" transform="rotate(180 9.4043 27.7695)"/><rect width="2.29" height="2.29" x="7.116" y="27.77" fill="#A0A0FF" transform="rotate(180 7.11621 27.7695)"/><rect width="2.29" height="2.29" x="7.116" y="25.481" fill="#5A5AB5" transform="rotate(180 7.11621 25.481)"/><rect width="2.29" height="2.29" x="4.824" y="25.481" fill="#A0A0FF" transform="rotate(180 4.82422 25.481)"/><rect width="2.29" height="2.29" x="4.824" y="23.193" fill="#A0A0FF" transform="rotate(180 4.82422 23.1929)"/><rect width="2.29" height="2.29" x="2.536" y="20.898" fill="#A0A0FF" transform="rotate(180 2.53564 20.8975)"/><rect width="2.29" height="2.29" x="2.536" y="18.609" fill="#A0A0FF" transform="rotate(180 2.53564 18.6089)"/><rect width="2.29" height="2.29" x="32.314" y="27.753" fill="#5A5AB5"/><rect width="2.29" height="2.29" x="32.314" y="23.183" fill="#5A5AB5"/><rect width="2.29" height="2.29" x="32.314" y="4.862" fill="#A0A0FF"/><rect width="2.29" height="2.29" x="32.314" y=".285" fill="#A0A0FF"/><rect width="2.29" height="2.29" x="32.314" y="30.048" fill="#A0A0FF"/><rect width="2.29" height="2.29" x="32.314" y="25.472" fill="#A0A0FF"/><rect width="2.29" height="2.29" x="32.314" y="7.15" fill="#5A5AB5"/><rect width="2.29" height="2.29" x="32.314" y="2.573" fill="#5A5AB5"/><rect width="2.29" height="2.29" x="20.866" y="15.166" fill="#5A5AB5" transform="rotate(90 20.8662 15.1665)"/><rect width="2.29" height="2.29" x="11.709" y="15.166" fill="#A0A0FF" transform="rotate(90 11.709 15.1665)"/><rect width="2.29" height="2.29" x="7.128" y="15.166" fill="#A0A0FF" transform="rotate(90 7.12842 15.1665)"/><rect width="2.29" height="2.29" x="55.207" y="15.166" fill="#5A5AB5" transform="rotate(90 55.207 15.1665)"/><rect width="2.29" height="2.29" x="13.997" y="15.166" fill="#5A5AB5" transform="rotate(90 13.9971 15.1665)"/><rect width="2.29" height="2.29" x="59.787" y="12.878" fill="#5A5AB5" transform="rotate(90 59.7871 12.8779)"/><rect width="2.29" height="2.29" x="50.63" y="15.166" fill="#A0A0FF" transform="rotate(90 50.6299 15.1665)"/><rect width="2.29" height="2.29" x="62.076" y="15.166" fill="#A0A0FF" transform="rotate(90 62.0757 15.1665)"/><rect width="2.29" height="2.29" x="64.368" y="15.166" fill="#5A5AB5" transform="rotate(90 64.3677 15.1665)"/><rect width="2.29" height="2.29" x="18.578" y="15.166" fill="#A0A0FF" transform="rotate(90 18.5776 15.1665)"/><rect width="2.29" height="2.29" x="4.84" y="15.166" fill="#5A5AB5" transform="rotate(90 4.83984 15.1665)"/><rect width="2.29" height="2.29" x="57.499" y="15.166" fill="#A0A0FF" transform="rotate(90 57.499 15.1665)"/><rect width="2.29" height="2.29" x="48.341" y="15.166" fill="#5A5AB5" transform="rotate(90 48.3413 15.1665)"/><rect width="2.29" height="2.29" x="20.859" y="25.474" fill="#5A5AB5"/><rect width="2.29" height="2.29" x="43.754" y="25.474" fill="#5A5AB5"/><rect width="2.29" height="2.29" x="25.44" y="23.185" fill="#A0A0FF"/><rect width="2.29" height="2.29" x="39.174" y="23.185" fill="#A0A0FF"/><rect width="2.29" height="2.29" fill="#5A5AB5" transform="matrix(1 0 0 -1 20.8594 7.15771)"/><rect width="2.29" height="2.29" fill="#5A5AB5" transform="matrix(1 0 0 -1 43.7544 7.15771)"/><rect width="2.29" height="2.29" fill="#A0A0FF" transform="matrix(1 0 0 -1 25.4399 9.44629)"/><rect width="2.29" height="2.29" fill="#A0A0FF" transform="matrix(1 0 0 -1 39.1738 9.44629)"/></svg>